<svg height="512pt" viewBox="0 -96 512 512" width="512pt" xmlns="http://www.w3.org/2000/svg"><path d="m456.835938 0h-345.414063c-.007813 0-.015625 0-.023437 0-.003907 0-.011719 0-.019532 0h-56.210937c-30.421875 0-55.167969 24.75-55.167969 55.167969v208.867187c0 30.417969 24.746094 55.164063 55.167969 55.164063h401.667969c30.417968 0 55.164062-24.746094 55.164062-55.164063v-208.867187c0-30.417969-24.746094-55.167969-55.164062-55.167969zm25.164062 55.167969v82.820312c-9.65625-5.984375-21.027344-9.453125-33.199219-9.453125s-23.546875 3.464844-33.199219 9.453125v-107.988281h41.234376c13.875 0 25.164062 11.289062 25.164062 25.167969zm-355.601562-25.167969h259.203124v259.199219h-259.203124zm355.601562 161.734375c0 18.308594-14.894531 33.199219-33.199219 33.199219-18.308593 0-33.199219-14.894532-33.199219-33.199219s14.890626-33.199219 33.199219-33.199219c18.304688 0 33.199219 14.894532 33.199219 33.199219zm-426.832031-161.734375h41.230469v43.722656c-9.652344-5.988281-21.027344-9.457031-33.199219-9.457031s-23.542969 3.46875-33.199219 9.457031v-18.554687c0-13.878907 11.289062-25.167969 25.167969-25.167969zm41.230469 97.46875c0 18.304688-14.890626 33.199219-33.199219 33.199219-18.304688 0-33.199219-14.894531-33.199219-33.199219 0-18.308594 14.894531-33.199219 33.199219-33.199219 18.308593 0 33.199219 14.890625 33.199219 33.199219zm-66.398438 136.566406v-82.820312c9.65625 5.984375 21.027344 9.453125 33.199219 9.453125s23.546875-3.464844 33.199219-9.453125v107.988281h-41.230469c-13.878907 0-25.167969-11.292969-25.167969-25.167969zm426.835938 25.167969h-41.234376v-43.722656c9.652344 5.988281 21.027344 9.457031 33.199219 9.457031s23.542969-3.46875 33.199219-9.457031v18.554687c0 13.875-11.289062 25.167969-25.164062 25.167969zm0 0"/><path d="m274.640625 84.726562c-5.859375-5.855468-15.355469-5.855468-21.214844 0l-72.296875 72.300782c-5.859375 5.859375-5.859375 15.355468 0 21.214844 2.925782 2.929687 6.765625 4.394531 10.605469 4.394531 3.835937 0 7.675781-1.464844 10.605469-4.394531l72.300781-72.300782c5.855469-5.859375 5.855469-15.355468 0-21.214844zm0 0"/><path d="m330.871094 140.960938c-5.855469-5.859376-15.351563-5.859376-21.210938 0l-72.300781 72.300781c-5.855469 5.855469-5.855469 15.355469 0 21.210937 2.929687 2.929688 6.769531 4.394532 10.605469 4.394532 3.839844 0 7.679687-1.464844 10.605468-4.394532l72.300782-72.296875c5.859375-5.859375 5.859375-15.355469 0-21.214843zm0 0"/></svg>